HIERARCHY
ROOT Hips
{
  OFFSET 0 89.5177 0.535
  CHANNELS 6 Xposition Yposition Zposition Zrotation Xrotation Yrotation
  JOINT Spine
  {
    OFFSET 12.0259 -0.162855 1.69034e-005
    CHANNELS 3 Zrotation Xrotation Yrotation
    JOINT Spine1
    {
      OFFSET 15.3169 -0.0121922 0
      CHANNELS 3 Zrotation Xrotation Yrotation
      JOINT Spine2
      {
        OFFSET 15.3176 -0.0121908 0
        CHANNELS 3 Zrotation Xrotation Yrotation
        JOINT Neck
        {
          OFFSET 19.9142 1.56338 0
          CHANNELS 3 Zrotation Xrotation Yrotation
          JOINT Head
          {
            OFFSET 6.92651 0 0
            CHANNELS 3 Zrotation Xrotation Yrotation
            End Site
            {
              OFFSET 20.7666 0 0
            }
          }
          JOINT LeftShoulder
          {
            OFFSET -6.20654 0.708824 7.28219
            CHANNELS 3 Zrotation Xrotation Yrotation
            JOINT LeftArm
            {
              OFFSET 14.108 0 -1.52588e-005
              CHANNELS 3 Zrotation Xrotation Yrotation
              JOINT LeftForeArm
              {
                OFFSET 28.5802 0 0
                CHANNELS 3 Zrotation Xrotation Yrotation
                JOINT LeftHand
                {
                  OFFSET 27.092 0 0
                  CHANNELS 3 Zrotation Xrotation Yrotation
                  End Site
                  {
                    OFFSET 9.55928 -0.186424 0.145352
                  }
                }
              }
            }
          }
          JOINT RightShoulder
          {
            OFFSET -6.20654 0.708866 -7.28218
            CHANNELS 3 Zrotation Xrotation Yrotation
            JOINT RightArm
            {
              OFFSET 14.108 0 1.52588e-005
              CHANNELS 3 Zrotation Xrotation Yrotation
              JOINT RightForeArm
              {
                OFFSET 28.5802 0 0
                CHANNELS 3 Zrotation Xrotation Yrotation
                JOINT RightHand
                {
                  OFFSET 27.092 0 0
                  CHANNELS 3 Zrotation Xrotation Yrotation
                  End Site
                  {
                    OFFSET 9.55929 -0.186417 -0.145354
                  }
                }
              }
            }
          }
        }
      }
    }
  }
  JOINT LeftUpLeg
  {
    OFFSET 0.005 -0.535 8.837
    CHANNELS 3 Zrotation Xrotation Yrotation
    JOINT LeftLeg
    {
      OFFSET 39.9035 0 0
      CHANNELS 3 Zrotation Xrotation Yrotation
      JOINT LeftFoot
      {
        OFFSET 39.6689 0 0
        CHANNELS 3 Zrotation Xrotation Yrotation
        JOINT LeftToe
        {
          OFFSET 10.1624 13.6296 0
          CHANNELS 3 Zrotation Xrotation Yrotation
          End Site
          {
            OFFSET 8.38147 0 0
          }
        }
      }
    }
  }
  JOINT RightUpLeg
  {
    OFFSET 0.005 -0.535 -8.837
    CHANNELS 3 Zrotation Xrotation Yrotation
    JOINT RightLeg
    {
      OFFSET 39.9035 0 0
      CHANNELS 3 Zrotation Xrotation Yrotation
      JOINT RightFoot
      {
        OFFSET 39.6689 0 0
        CHANNELS 3 Zrotation Xrotation Yrotation
        JOINT RightToe
        {
          OFFSET 10.1624 13.6296 0
          CHANNELS 3 Zrotation Xrotation Yrotation
          End Site
          {
            OFFSET 8.38147 0 0
          }
        }
      }
    }
  }
}
MOTION
Frames:	17
Frame Time:	0.0333333
268.575 85.3411 -107.148 -46.9401 75.2221 139.367 5.85757 -0.407773 -0.192291 11.7142 -0.832551 -0.341877 11.7142 -0.832552 -0.341886 -8.3043e-012 -9.0191e-006 -5.27751e-005 -22.5183 -12.6886 -1.07723 179.565 1.42279 -72.9891 -20.5815 3.15571 57.27 -66.5672 -1.59028e-015 3.18055e-015 -74.8555 -52.3407 -86.7164 -179.869 0.433969 73.2058 -2.47967 16.3474 -71.3854 -20.9055 -1.59028e-015 -3.97569e-016 -37.6678 43.3501 43.6391 -9.47207 12.4957 -176.237 -62.8673 0 6.36111e-015 5.89048 13.3724 -28.9072 90 -1.59028e-015 -3.18055e-015 -11.8777 -7.92133 -174.508 -22.5154 0 7.95139e-016 11.9015 -6.20654 13.132 90 1.59028e-015 -1.59028e-015 
266.852 84.9458 -109.69 -41.5692 76.7401 132.815 5.76318 -0.397394 -0.0996266 11.5261 -0.802295 -0.158751 11.5261 -0.802296 -0.15876 -8.30748e-012 -9.0191e-006 -5.27751e-005 -22.8071 -11.885 -0.776691 179.514 1.61213 -73.2171 -21.7467 2.57258 57.6697 -67.1186 0 -3.18055e-015 -73.9165 -51.8923 -85.1359 -179.825 0.582999 73.3195 -5.30098 15.2244 -70.6464 -23.0826 1.59028e-015 7.95139e-016 -37.4958 44.6706 44.2797 -2.67102 11.0981 -179.104 -57.2257 1.59028e-015 -3.18055e-015 4.04407 17.6668 -40.2768 90 -3.18055e-015 6.36111e-015 -11.7767 -10.1163 -172.888 -19.7123 0 3.23025e-016 12.1686 -8.40728 18.0039 90 2.78299e-015 3.18055e-015 
265.055 84.3517 -112.298 -37.9515 77.8335 127.715 5.59608 -0.538085 0.0572225 11.1934 -1.06754 0.166759 11.1934 -1.06754 0.16675 -8.29794e-012 -9.0191e-006 -5.27751e-005 -22.5516 -11.1335 0.0717234 179.533 1.56954 -73.4287 -23.1049 1.94124 57.8349 -67.334 0 -3.18055e-015 -72.7896 -52.4508 -83.6816 -179.803 0.659387 73.3598 -8.70645 14.1147 -69.4633 -24.7504 0 -0 -35.8316 45.5042 42.6172 4.40295 7.22505 176.93 -48.3532 0 1.59028e-015 11.3654 16.8274 -38.3405 90 2.38542e-015 3.18055e-015 -11.5364 -13.4251 -171.071 -17.2136 -3.97569e-016 2.80783e-015 13.3453 -10.4819 22.8362 90 0 7.95139e-015 
262.919 83.6652 -115.041 -36.3244 78.0492 125.256 5.50804 -0.915037 0.0911531 11.0196 -1.81661 0.269891 11.0196 -1.81661 0.269882 -8.30748e-012 -9.0191e-006 -5.27751e-005 -22.2263 -10.2249 1.43079 179.57 1.45251 -73.4959 -24.3767 1.47815 57.6168 -67.3447 0 3.18055e-015 -70.407 -52.6608 -80.5714 -179.753 0.814832 73.1494 -12.0094 13.5175 -68.04 -25.5111 -4.77083e-015 -7.95139e-016 -34.5085 45.4235 40.6104 8.95718 7.26251 175.321 -42.405 0 -0 24.5395 10.2269 -22.1932 90 -3.97569e-016 -1.59028e-015 -11.1994 -16.6181 -169.679 -15.3741 -7.95139e-016 -1.98785e-015 15.0411 -11.5589 25.5254 90 -1.59028e-015 -3.18055e-015 
260.89 83.2495 -117.964 -37.1633 77.7475 127.285 5.60697 -1.44704 -0.362669 11.2102 -2.92209 -0.582304 11.2102 -2.92209 -0.582314 -8.31066e-012 -9.0191e-006 -5.27751e-005 -23.4057 -9.38174 3.50407 179.383 2.05249 -73.26 -24.6367 0.891984 56.4776 -66.9051 -7.95139e-015 -6.36111e-015 -68.6817 -52.5252 -78.0379 -179.535 1.36399 71.1752 -15.0831 14.0992 -65.7197 -25.312 -1.59028e-015 -0 -33.7481 44.3027 39.288 10.9692 8.95945 173.307 -37.635 0 -3.18055e-015 28.7208 5.50631 -11.8412 90 6.55989e-015 -0 -11.5723 -20.5243 -170.871 -14.2928 7.95139e-015 -1.19271e-015 16.3741 -11.9883 26.6781 90 1.27222e-014 -6.36111e-015 
259.071 83.2159 -120.831 -43.5124 77.1403 135.051 5.61168 -1.93674 -0.789383 11.2061 -3.94079 -1.38648 11.2061 -3.94079 -1.38649 -8.30748e-012 -9.0191e-006 -5.27751e-005 -24.7077 -8.6466 4.28106 178.919 3.61098 -73.3182 -24.0053 0.272993 56.0107 -64.5314 -3.18055e-015 -3.18055e-015 -66.8772 -52.7442 -75.2658 -179.282 1.94272 69.726 -14.7295 15.5094 -65.2759 -23.9787 3.97569e-015 3.97569e-016 -35.062 42.1319 39.7308 10.1752 8.44603 172.183 -34.9411 0 1.59028e-015 30.548 3.954 -8.55251 90 -3.97569e-015 -0 -13.5101 -25.0523 -173.307 -14.7135 3.18056e-015 1.19271e-015 15.373 -10.6457 23.4716 90 4.37326e-015 1.59028e-015 
257.518 83.6571 -123.292 -44.642 76.2543 137.366 5.76347 -2.01618 -1.07212 11.4994 -4.12911 -1.93785 11.4994 -4.12911 -1.93786 -8.30748e-012 -9.0191e-006 -5.27751e-005 -25.9641 -7.51897 3.59958 178.656 4.48922 -73.3104 -24.3429 -0.564278 56.3863 -60.1934 -6.36111e-015 -3.18055e-015 -65.6372 -52.93 -74.0137 -179.331 1.87731 70.3801 -11.3545 15.8568 -67.0553 -22.867 7.95139e-016 1.39149e-015 -39.1459 41.5188 44.0778 9.1765 6.80522 171.577 -33.7669 -4.77083e-015 -1.59028e-015 29.5348 3.38236 -7.32725 90 -1.963e-015 3.18055e-015 -15.9397 -26.6658 -176.764 -19.4625 0 7.95139e-016 15.2982 -8.33665 18.1268 90 -3.97569e-015 1.59028e-015 
256.037 84.5074 -125.27 -43.7434 76.4632 136.722 5.75006 -1.67455 -1.19177 11.4719 -3.45932 -2.21101 11.4719 -3.45932 -2.21102 -8.31066e-012 -9.0191e-006 -5.27751e-005 -26.4715 -5.66417 2.45447 178.63 4.47849 -72.9739 -23.5976 -1.48202 57.703 -56.1504 4.77083e-015 3.18055e-015 -65.0445 -52.4407 -73.7644 -179.604 1.13022 70.7104 -9.80565 12.5776 -66.9032 -24.6394 0 1.19271e-015 -43.0186 44.0279 49.917 7.95323 7.73537 172.377 -32.9245 -3.18055e-015 -4.77083e-015 27.4901 3.94303 -8.44373 90 6.83322e-016 -0 -17.7618 -24.3636 -179.32 -25.4727 -1.59028e-015 -1.49089e-015 14.9618 -6.40537 13.7782 90 3.72721e-015 -1.78906e-015 
254.57 85.56 -126.85 -45.704 77.1796 138.433 5.46188 -1.38726 -1.0873 10.9016 -2.87103 -2.03839 10.9016 -2.87103 -2.03839 -8.30748e-012 -9.0191e-006 -5.27751e-005 -25.2638 -2.65711 0.841145 178.792 3.65698 -71.7021 -18.925 -2.53404 59.4492 -55.7814 3.18055e-015 3.18055e-015 -67.0988 -53.5028 -76.5043 -179.718 0.85209 71.6971 -12.1786 7.7301 -65.2196 -28.8375 -1.59028e-015 -1.59028e-015 -43.7988 46.7289 50.8457 6.19628 8.58352 173.744 -31.7069 3.18055e-015 3.18055e-015 24.7438 4.64968 -9.86293 90 2.21769e-015 -3.18055e-015 -18.6024 -20.4034 178.797 -30.6903 -1.59028e-015 -3.97569e-016 13.3672 -5.11268 10.8771 90 -3.97569e-016 -1.19271e-015 
253.042 86.4138 -128.395 -51.9645 77.4157 144.498 5.1417 -1.34591 -0.986674 10.264 -2.77418 -1.84939 10.264 -2.77419 -1.8494 -8.30748e-012 -9.0191e-006 -5.27751e-005 -24.7194 0.609452 -0.56801 178.877 2.97715 -69.3199 -11.4658 -3.11515 57.8689 -63.3903 7.95139e-016 -1.59028e-015 -73.4736 -55.8137 -84.0749 -179.604 1.36901 73.8568 -17.2243 4.48502 -64.7239 -35.9097 0 1.59028e-015 -46.964 47.935 54.263 3.53988 7.66667 174.904 -31.1961 -6.36111e-015 -3.18055e-015 21.9832 5.05941 -10.6612 90 -1.2921e-015 -0 -18.4359 -16.7796 176.511 -34.5286 -7.95139e-016 -0 10.6218 -4.03737 8.48368 90 9.19379e-016 3.97569e-016 
251.361 86.8428 -129.906 -58.9942 76.5601 151.304 4.98273 -1.2753 -0.966738 9.94717 -2.62912 -1.8196 9.94717 -2.62912 -1.81961 -8.3043e-012 -9.0191e-006 -5.27751e-005 -24.6988 1.66075 -0.64552 179.048 2.49755 -69.1204 -5.28636 -6.19805 55.0058 -77.0332 0 9.93923e-016 -79.8157 -52.9403 -91.414 -179.58 1.65789 75.7791 -19.7831 3.11688 -65.571 -51.1584 0 -3.18055e-015 -56.6103 46.9711 64.9875 0.743384 7.01794 176.445 -31.6529 3.18055e-015 2.38542e-015 20.715 5.85646 -12.2864 90 -1.56543e-015 -3.18055e-015 -15.7016 -13.5134 174.065 -35.9447 -3.97569e-016 -6.95746e-016 11.5518 -4.4148 9.20161 90 -1.27968e-015 -3.97569e-016 
249.353 86.6354 -131.523 -66.0571 75.3175 158.742 4.74285 -0.759427 -0.980283 9.47341 -1.59672 -1.89457 9.47341 -1.59672 -1.89458 -8.30748e-012 -9.0191e-006 -5.27751e-005 -23.4105 -0.772848 -1.46759 179.396 1.82245 -71.662 -6.23899 -15.7574 54.6204 -85.2961 -2.98177e-016 -0 -84.6815 -49.5361 -98.0549 -179.619 1.57198 76.3656 -16.4381 6.59873 -66.3484 -68.2725 -4.77083e-015 -3.18055e-015 -61.568 49.2391 71.9987 -2.42298 8.20188 177.882 -32.8695 -6.36111e-015 -4.77083e-015 21.6985 7.45084 -15.6702 90 5.96354e-016 -0 -12.2958 -9.61689 171.698 -36.8082 -3.97569e-016 8.94531e-016 12.7421 -3.15177 6.50527 90 6.95746e-016 1.59028e-015 
247.294 86.2953 -133.254 -73.0395 72.2401 166.279 4.38347 -0.551693 -0.963081 8.75773 -1.17482 -1.88121 8.75773 -1.17482 -1.88121 -8.30748e-012 -9.0191e-006 -5.27751e-005 -20.3612 -4.79362 -2.10243 179.054 3.13642 -73.207 -10.2493 -26.7469 53.0103 -93.2515 3.97569e-016 3.18055e-015 -83.9535 -47.9644 -96.3234 -179.67 1.28858 75.631 -14.041 14.734 -66.5073 -83.4547 -2.08724e-015 3.18055e-015 -71.6438 45.1397 85.3865 -5.88356 8.56168 179.082 -34.1964 -3.18055e-015 -1.59028e-015 22.4284 8.99064 -19.0202 90 5.96354e-015 9.54166e-015 -8.6844 -7.70857 168.881 -37.1004 0 1.19271e-015 11.5917 -1.19185 2.39895 90 9.93923e-016 -3.18055e-015 
245.176 85.8375 -134.76 -77.7764 67.9282 171.272 4.06795 -0.895072 -0.859466 8.12361 -1.84829 -1.65346 8.12361 -1.84829 -1.65347 -8.30589e-012 -9.0191e-006 -5.27751e-005 -17.1041 -9.014 -1.94351 178.81 4.22524 -74.2555 -16.7665 -33.2014 51.7304 -99.6136 5.56597e-015 -1.59028e-015 -79.998 -44.8133 -90.0438 -179.632 1.61436 77.143 -11.2026 24.2596 -71.6408 -93.945 7.95139e-016 -0 -75.0213 41.7589 91.2967 -10.4736 7.47355 -179.724 -37.4769 -3.18055e-015 -1.59028e-015 21.6377 9.55491 -20.2325 90 -1.19271e-015 -3.18055e-015 -4.71972 -7.79084 166.449 -37.2111 0 1.59028e-015 12.2456 0.116818 -0.33992 90 -2.38542e-015 1.59028e-015 
243.21 85.3887 -135.695 -79.4542 66.3783 173.13 3.7842 -0.765584 -0.977622 7.55588 -1.59344 -1.90273 7.55588 -1.59344 -1.90274 -8.3043e-012 -9.0191e-006 -5.27751e-005 -13.9163 -14.6884 0.544498 178.884 4.47789 -75.9918 -23.381 -30.3029 53.1723 -105.843 -7.95139e-016 -3.18055e-015 -79.038 -46.7683 -89.2328 -179.729 1.3198 78.3929 -11.7254 23.3619 -73.9306 -106.424 0 3.18055e-015 -74.6739 41.4691 89.8016 -13.723 8.77569 -178.324 -39.8389 3.18055e-015 -1.59028e-015 20.8189 9.66475 -20.4378 90 3.57812e-015 -0 -1.03094 -8.24818 163.981 -36.515 1.59028e-015 -1.59028e-015 13.2993 0.757717 -1.70653 90 -5.1684e-015 -0 
241.348 85.0779 -136.057 -78.3393 67.2951 171.783 3.89501 -0.407518 -0.919837 7.78333 -0.876043 -1.80982 7.78333 -0.876043 -1.80983 -8.30907e-012 -9.0191e-006 -5.27751e-005 -13.2529 -20.9115 1.84675 178.758 4.7094 -75.2052 -26.1219 -20.5041 55.6712 -116.196 -1.19271e-015 -7.95139e-016 -79.2889 -56.2876 -91.2017 -179.453 2.49572 77.6341 -12.5069 14.835 -71.7959 -116.097 -1.59028e-015 -3.18055e-015 -73.2594 50.505 88.2361 -14.7512 10.3753 -176.21 -40.6004 6.36111e-015 3.18055e-015 21.0706 10.073 -21.3292 90 3.97569e-016 -6.36111e-015 2.68449 -9.52168 161.677 -33.7874 0 -7.95139e-016 14.3709 0.755191 -1.76563 90 1.59028e-015 -1.59028e-015 
239.187 84.7988 -136.433 -74.5831 69.7337 166.983 4.13163 -0.749817 -0.977662 8.25102 -1.56754 -1.8989 8.25102 -1.56754 -1.89891 -8.30589e-012 -9.0191e-006 -5.27751e-005 -13.3038 -23.4973 3.3434 179.104 3.26996 -74.67 -19.0547 -12.6737 56.6651 -119.986 -5.09386e-016 -5.46658e-016 -78.4537 -54.9818 -90.2111 -179.081 3.61177 75.7136 -14.678 8.66082 -68.5308 -117.265 -3.18055e-015 -0 -72.2742 54.6517 88.1821 -15.763 11.244 -173.206 -42.1879 6.36111e-015 -0 20.5344 9.62158 -20.2554 90 -2.78299e-015 9.54166e-015 5.53128 -9.33461 160.799 -31.1144 -3.18056e-015 5.56597e-015 13.6466 0.286344 -0.843845 90 0 -1.59028e-015 
